<svg xmlns="http://www.w3.org/2000/svg" width="84" height="25" viewBox="0 0 84 25">
    <g fill="none" fill-rule="evenodd">
        <rect width="83" height="25" fill="#000" rx="4"/>
        <g fill="#FFF" fill-rule="nonzero">
            <path d="M18.746 12.365c-.018-2.014 1.642-2.994 1.718-3.04-.94-1.377-2.397-1.565-2.91-1.58-1.223-.13-2.41.736-3.034.736-.636 0-1.596-.723-2.63-.702-1.332.02-2.578.795-3.261 1.997-1.41 2.452-.358 6.055.992 8.037.676.97 1.466 2.055 2.5 2.016 1.01-.041 1.388-.647 2.608-.647 1.21 0 1.564.647 2.618.623 1.085-.017 1.768-.975 2.42-1.954.781-1.113 1.095-2.208 1.107-2.265-.025-.008-2.107-.807-2.128-3.221zM16.755 6.441c.544-.683.916-1.612.813-2.555-.787.035-1.772.546-2.338 1.215-.502.588-.95 1.553-.834 2.46.884.067 1.792-.447 2.36-1.12z"/>
        </g>
        <g fill="#FFF" fill-rule="nonzero">
            <path d="M33.38 19.69h-1.414l-.774-2.443h-2.69l-.738 2.443h-1.376l2.666-8.318H30.7l2.68 8.318zm-2.421-3.468l-.7-2.172c-.074-.222-.213-.744-.418-1.567h-.025c-.081.354-.213.876-.393 1.567l-.688 2.172h2.224zM40.234 16.617c0 1.02-.274 1.827-.823 2.419a2.402 2.402 0 0 1-1.83.79c-.787 0-1.352-.284-1.696-.852h-.025v3.16h-1.327v-6.467c0-.641-.016-1.3-.049-1.974h1.167l.074.95h.025c.442-.716 1.114-1.074 2.015-1.074.704 0 1.292.28 1.762.84.472.56.707 1.295.707 2.209zm-1.351.05c0-.585-.131-1.066-.394-1.445a1.356 1.356 0 0 0-1.154-.592c-.328 0-.625.11-.89.327-.267.219-.441.504-.523.858-.04.165-.061.3-.061.406v1c0 .437.133.805.399 1.105.266.3.612.45 1.038.45.5 0 .888-.193 1.167-.58.278-.386.418-.896.418-1.53zM47.102 16.617c0 1.02-.275 1.827-.824 2.419a2.4 2.4 0 0 1-1.83.79c-.787 0-1.352-.284-1.695-.852h-.025v3.16h-1.327v-6.467c0-.641-.016-1.3-.049-1.974h1.167l.074.95h.025c.442-.716 1.113-1.074 2.015-1.074.703 0 1.291.28 1.763.84.47.56.706 1.295.706 2.209zm-1.352.05c0-.585-.131-1.066-.394-1.445a1.354 1.354 0 0 0-1.154-.592c-.328 0-.625.11-.891.327-.266.219-.44.504-.521.858-.04.165-.062.3-.062.406v1c0 .437.133.805.398 1.105.267.3.612.45 1.04.45.499 0 .888-.193 1.166-.58.279-.386.418-.896.418-1.53zM54.78 17.358c0 .707-.245 1.283-.736 1.727-.54.486-1.29.728-2.255.728-.891 0-1.606-.172-2.146-.518l.307-1.11a3.624 3.624 0 0 0 1.918.53c.5 0 .888-.113 1.168-.34.278-.226.417-.53.417-.908 0-.338-.115-.622-.344-.853-.229-.23-.61-.445-1.143-.643-1.45-.543-2.174-1.338-2.174-2.385 0-.683.254-1.244.762-1.68.507-.437 1.183-.655 2.028-.655.753 0 1.379.132 1.879.395l-.332 1.086a3.249 3.249 0 0 0-1.585-.383c-.466 0-.831.116-1.092.346a.99.99 0 0 0-.332.753c0 .329.126.6.38.815.221.197.622.41 1.205.641.712.289 1.235.625 1.572 1.012.335.385.503.867.503 1.442zM59.166 14.692h-1.462v2.912c0 .741.257 1.111.774 1.111.237 0 .433-.02.589-.062l.037 1.012c-.262.098-.606.147-1.032.147-.524 0-.933-.16-1.229-.48-.294-.322-.442-.86-.442-1.618v-3.023h-.871v-1h.87v-1.098l1.304-.395v1.493h1.462v1.001zM65.763 16.642c0 .922-.262 1.679-.786 2.27-.55.61-1.279.914-2.188.914-.876 0-1.574-.292-2.094-.876-.52-.584-.78-1.32-.78-2.209 0-.93.268-1.69.805-2.282.535-.593 1.258-.889 2.167-.889.876 0 1.581.292 2.113.876.51.567.763 1.299.763 2.196zm-1.376.043c0-.553-.118-1.027-.356-1.423-.278-.479-.676-.718-1.19-.718-.534 0-.94.24-1.217.718-.239.396-.356.878-.356 1.448 0 .553.117 1.027.356 1.423.286.478.687.717 1.204.717.507 0 .904-.244 1.191-.73.245-.403.368-.883.368-1.435zM70.075 14.864a2.293 2.293 0 0 0-.418-.037c-.467 0-.827.177-1.081.532-.221.312-.332.707-.332 1.184v3.147h-1.326l.013-4.109c0-.691-.017-1.32-.05-1.888h1.155l.049 1.148h.037c.14-.395.36-.712.663-.95a1.6 1.6 0 0 1 .959-.322c.122 0 .233.01.331.025v1.27zM76.008 16.407c0 .24-.015.44-.048.605h-3.98c.015.592.208 1.045.577 1.358.336.28.77.42 1.302.42.59 0 1.127-.095 1.61-.284l.208.925c-.565.247-1.232.37-2.002.37-.925 0-1.652-.273-2.181-.82-.528-.547-.792-1.282-.792-2.203 0-.904.246-1.657.738-2.258.515-.641 1.211-.962 2.087-.962.86 0 1.512.32 1.955.962.35.51.526 1.14.526 1.887zm-1.265-.345c.009-.395-.078-.736-.257-1.025-.23-.37-.583-.555-1.058-.555-.433 0-.786.18-1.055.543-.221.288-.353.634-.393 1.036h2.763z"/>
        </g>
        <g fill="#FFF" fill-rule="nonzero">
            <path d="M30.52 6.256c0 .735-.22 1.289-.658 1.66-.407.344-.984.516-1.732.516-.37 0-.688-.016-.954-.049v-4.02c.347-.056.72-.084 1.123-.084.713 0 1.25.155 1.612.467.406.351.609.855.609 1.51zm-.688.018c0-.477-.125-.843-.377-1.098-.251-.254-.618-.382-1.102-.382-.205 0-.38.014-.525.043v3.055c.08.013.227.019.44.019.5 0 .885-.14 1.156-.419.272-.278.408-.685.408-1.218zM34.166 6.898c0 .453-.13.825-.387 1.116-.27.3-.628.449-1.074.449-.431 0-.774-.144-1.03-.431-.255-.287-.382-.649-.382-1.085 0-.456.131-.83.395-1.121.264-.291.618-.437 1.065-.437.43 0 .777.143 1.039.43.249.28.374.64.374 1.08zm-.677.021c0-.271-.058-.505-.175-.699-.136-.235-.331-.352-.584-.352a.654.654 0 0 0-.598.352 1.355 1.355 0 0 0-.175.711c0 .272.058.505.175.7.14.235.337.352.591.352.25 0 .445-.12.585-.359.12-.198.181-.433.181-.705zM39.054 5.45l-.918 2.946h-.597l-.38-1.28a9.61 9.61 0 0 1-.236-.952h-.012c-.057.324-.135.641-.236.952l-.404 1.28h-.604l-.863-2.947h.67l.332 1.401c.08.331.146.647.199.946h.012c.048-.247.129-.56.242-.94l.416-1.406h.531l.4 1.376c.096.336.174.659.234.97h.018c.045-.303.111-.626.2-.97l.356-1.376h.64zM42.434 8.396h-.652V6.708c0-.52-.196-.78-.59-.78a.587.587 0 0 0-.472.214.763.763 0 0 0-.181.505v1.748h-.652V6.291c0-.259-.008-.54-.024-.843h.573l.03.46h.019a.945.945 0 0 1 .338-.355c.176-.11.374-.166.59-.166.275 0 .502.09.683.267.226.218.338.544.338.977v1.765zM44.233 8.396h-.652V4.097h.652zM48.072 6.898c0 .453-.13.825-.387 1.116-.27.3-.628.449-1.074.449-.432 0-.774-.144-1.03-.431-.255-.287-.382-.649-.382-1.085 0-.456.131-.83.395-1.121.264-.291.618-.437 1.065-.437.43 0 .776.143 1.039.43.249.28.374.64.374 1.08zm-.677.021c0-.271-.059-.505-.175-.699-.136-.235-.332-.352-.584-.352a.652.652 0 0 0-.598.352 1.355 1.355 0 0 0-.175.711c0 .272.058.505.175.7.14.235.337.352.591.352.25 0 .444-.12.585-.359.12-.198.18-.433.18-.705zM51.228 8.396h-.586l-.048-.34h-.019c-.2.27-.485.406-.856.406-.277 0-.501-.089-.67-.266a.839.839 0 0 1-.23-.6c0-.36.15-.635.45-.825.3-.19.722-.283 1.265-.279v-.055c0-.388-.202-.581-.609-.581-.29 0-.544.073-.764.218l-.133-.43c.273-.17.61-.255 1.006-.255.767 0 1.151.407 1.151 1.22v1.084c0 .295.015.529.043.703zm-.677-1.013V6.93c-.72-.013-1.08.185-1.08.593 0 .154.042.27.126.346a.455.455 0 0 0 .318.115.657.657 0 0 0 .4-.136.558.558 0 0 0 .236-.464zM54.933 8.396h-.579l-.03-.474h-.018c-.185.36-.5.54-.942.54-.354 0-.648-.139-.881-.418-.234-.278-.35-.64-.35-1.085 0-.477.126-.863.38-1.158.246-.275.547-.412.905-.412.394 0 .67.133.827.4h.012V4.098h.653v3.504c0 .287.007.551.023.794zm-.676-1.243v-.491a.747.747 0 0 0-.254-.603.64.64 0 0 0-.436-.16.668.668 0 0 0-.574.29c-.138.195-.209.443-.209.746 0 .291.067.528.2.71a.67.67 0 0 0 .57.29c.215 0 .386-.08.516-.242a.81.81 0 0 0 .187-.54zM60.51 6.898c0 .453-.129.825-.387 1.116-.27.3-.627.449-1.074.449-.43 0-.773-.144-1.03-.431-.254-.287-.382-.649-.382-1.085 0-.456.131-.83.395-1.121.264-.291.619-.437 1.066-.437.43 0 .777.143 1.038.43.249.28.374.64.374 1.08zm-.676.021c0-.271-.058-.505-.175-.699-.137-.235-.331-.352-.585-.352a.655.655 0 0 0-.598.352 1.355 1.355 0 0 0-.175.711c0 .272.058.505.175.7.141.235.338.352.592.352.248 0 .444-.12.585-.359.12-.198.181-.433.181-.705zM64.016 8.396h-.651V6.708c0-.52-.197-.78-.592-.78a.585.585 0 0 0-.47.214.76.76 0 0 0-.182.505v1.748h-.652V6.291c0-.259-.008-.54-.023-.843h.572l.03.46h.019a.954.954 0 0 1 .338-.355 1.1 1.1 0 0 1 .591-.166c.273 0 .501.09.682.267.226.218.338.544.338.977v1.765zM68.405 5.94h-.718v1.431c0 .364.127.546.38.546.117 0 .214-.01.29-.03l.017.496a1.46 1.46 0 0 1-.506.073c-.258 0-.458-.078-.603-.236-.146-.157-.218-.422-.218-.794V5.94h-.429v-.49h.429v-.54l.639-.194v.733h.718v.491zM71.857 8.396h-.653V6.72c0-.529-.197-.793-.59-.793-.303 0-.51.153-.623.46a.826.826 0 0 0-.03.235v1.772h-.652V4.098h.652v1.775h.012a.985.985 0 0 1 .881-.484c.27 0 .494.088.671.267.221.222.332.552.332.988v1.752zM75.418 6.783c0 .118-.009.216-.025.297h-1.955c.008.291.102.513.283.667.165.137.379.206.64.206.29 0 .553-.046.791-.14l.102.456a2.446 2.446 0 0 1-.984.182c-.455 0-.812-.135-1.071-.403-.26-.27-.389-.63-.389-1.082 0-.445.12-.815.362-1.11.253-.315.594-.472 1.026-.472.421 0 .742.157.958.472.175.25.262.56.262.927zm-.623-.17a.885.885 0 0 0-.126-.502c-.113-.182-.285-.274-.519-.274a.618.618 0 0 0-.519.267.994.994 0 0 0-.193.51h1.357z"/>
        </g>
        <rect width="83" height="24" x=".5" y=".5" stroke="#979797" rx="4"/>
    </g>
</svg>
