<?xml version="1.0" encoding="UTF-8"?>
<svg width="54px" height="16px" viewBox="0 0 54 16" version="1.1" xmlns="http://www.w3.org/2000/svg" xmlns:xlink="http://www.w3.org/1999/xlink">
    <!-- Generator: Sketch 49.3 (51167) - http://www.bohemiancoding.com/sketch -->
    <title>slack copy</title>
    <desc>Created with Sketch.</desc>
    <defs></defs>
    <g id="Page-1" stroke="none" stroke-width="1" fill="none" fill-rule="evenodd">
        <g id="DEVELOP/Reports-Copy" transform="translate(-43.000000, -1586.000000)" fill-rule="nonzero">
            <g id="slack-copy" transform="translate(43.000000, 1586.000000)">
                <path d="M19.1118668,6.6150197 C19.1118668,4.94067863 20.2855439,3.77153252 22.4184554,3.77153252 C23.7198856,3.77153252 24.7848205,4.20373353 25.3617734,4.62712103 C25.4443349,4.68757267 25.591642,4.83423853 25.503323,5.1070054 C25.3901268,5.40078909 25.182528,5.84259457 25.0335914,6.12959864 C24.9469018,6.29682936 24.7255066,6.27479558 24.6120931,6.2150219 C24.2011323,5.99841292 23.527061,5.63197426 22.9078497,5.56440401 C22.7510513,5.54664769 22.5933062,5.53955168 22.4356195,5.54316119 C21.890279,5.55581649 21.4346698,5.75276456 21.274218,6.18553054 C21.2427752,6.26741392 21.2252419,6.35435475 21.2223998,6.44247828 C21.2074084,7.01275762 21.9704506,7.21897118 22.8948136,7.38416801 C24.6132881,7.69038102 25.9134147,8.21444593 25.9134147,10.0542098 C25.9134147,11.6165741 24.7196404,13.0285437 22.3806509,12.9852671 C20.838706,12.9528379 19.7447659,12.41092 19.1585792,11.8850472 C19.1385906,11.8671942 18.9154573,11.6308113 19.0350628,11.3465191 C19.1719411,10.9805324 19.4030047,10.5610997 19.5843142,10.338389 C19.6851261,10.195339 19.9511697,10.1726272 20.0894603,10.2617793 C20.5726624,10.574094 21.3678601,11.0748822 22.2845102,11.1081023 C22.3568602,11.1107012 22.4285583,11.1111532 22.4989529,11.1092323 C23.3234817,11.0884414 23.8223271,10.7632455 23.8118982,10.2154519 C23.8029903,9.73285566 23.1492334,9.4509363 22.1081979,9.24686963 C20.4478424,8.92156068 19.112084,8.35229828 19.112084,6.6150197 L19.1118668,6.6150197 Z M34.1959641,8.99907438 C33.0251115,9.0150065 31.9515945,9.34788602 31.9206339,10.2996322 C31.920308,11.0548823 32.5093193,11.4258407 33.3360208,11.3772534 C34.1290458,11.2978188 34.7338089,10.9400807 35.0002871,10.465394 C35.0988177,10.2894628 35.1138092,9.6311613 35.1078343,9.34980692 C35.1063134,9.28992024 34.9924655,9.17658753 34.9426026,9.15477974 C34.6938318,9.04574079 34.5096979,9.01206866 34.1958555,8.99884839 L34.1959641,8.99907438 Z M30.3000383,5.16406723 C30.8475515,4.65446551 31.9331268,3.86124954 33.6632251,3.90305722 C35.9463768,3.95243548 37.1525354,5.06576268 37.2648625,7.72902487 C37.3111404,8.82732391 37.2344451,11.8908099 37.2161947,12.6540825 C37.2134788,12.7635734 37.177847,12.8392792 37.0359716,12.8421041 C36.6599908,12.8578102 35.7913567,12.8515956 35.392237,12.8461719 C35.1908304,12.8360024 35.1674741,12.7320482 35.1648669,12.6232352 C35.1631288,12.5520492 35.1572626,12.3409769 35.1530259,12.1688875 C35.1507446,12.0775885 35.0682917,12.0801874 35.0472168,12.1035771 C34.5116533,12.6983761 33.6345458,12.9856061 32.701818,12.9856061 C31.2841498,12.9856061 29.8708271,12.1181533 29.8751724,10.4003096 C29.8795178,8.64099726 31.0788324,7.77320542 32.3963404,7.56857378 C33.2399887,7.43795303 34.190967,7.55411058 34.9110989,7.85173606 C34.9571595,7.87094499 35.0512362,7.84314854 35.0519967,7.77523931 C35.0549298,7.55105975 35.0445009,7.12383046 35.0031115,6.9213457 C34.8974111,6.40541633 34.4836258,5.99027737 33.61434,5.87841358 C33.4353118,5.85547585 33.2550887,5.84790528 33.0746484,5.86282045 C32.3836302,5.91931731 31.5520402,6.47976621 31.2076718,6.68959556 C31.1266312,6.73886083 30.9997472,6.70281583 30.9586837,6.64778788 C30.7577116,6.37773287 30.2525654,5.58790671 30.2128056,5.46169271 C30.1730457,5.3358177 30.2291006,5.22982958 30.2998211,5.16361525 L30.3000383,5.16406723 Z M38.0176932,8.43907746 C38.004114,5.98541864 39.6477399,3.91548653 42.3166495,3.89729454 C43.9820022,3.88599516 45.1918543,4.67130158 45.4052106,5.04169502 C45.4485554,5.12870019 45.4262855,5.20135516 45.3963026,5.2889253 C45.2552963,5.59852812 44.8991954,6.19671692 44.6454274,6.5356981 C44.537337,6.68010409 44.4200127,6.55637595 44.2836776,6.46202619 C43.9053069,6.19988074 43.1863699,5.87931753 42.4788394,5.87931753 C41.1952251,5.87954352 40.2393583,6.79501871 40.2500044,8.47930323 C40.2599987,10.0955655 41.1755625,10.9838092 42.4832934,11.0160124 C43.1669245,11.0338654 43.8292634,10.6251671 44.1855815,10.2903667 C44.2974741,10.1887854 44.4132774,10.2396325 44.5411392,10.3435868 C44.7920827,10.610365 45.1519857,11.0222271 45.3515456,11.3057284 C45.4822318,11.4632416 45.3844616,11.6173651 45.3374232,11.6792856 C44.7959935,12.3919371 43.7502868,12.9917078 42.3664037,12.9998433 C39.4687118,13.0209732 38.0312724,10.9017758 38.0179104,8.43941644 L38.0176932,8.43907746 Z M51.84968,12.8892225 C51.9856892,12.8786011 53.4371424,12.6702406 53.8826486,12.5641395 C53.9932376,12.537925 54.032563,12.4412023 53.9707505,12.3453837 C53.7219796,11.9573632 53.0678968,10.8554484 52.3828535,9.8690131 C51.7527788,8.96201244 51.0887018,8.16427671 50.8739332,7.85738575 C50.8215718,7.78280989 50.8243963,7.70936396 50.8814289,7.65151117 C51.2899998,7.23569425 52.9990232,5.49276599 53.6415907,4.77299593 C53.8903616,4.49299747 53.7409905,4.37254616 53.5296982,4.30712279 C53.1215618,4.18056981 52.4613956,4.02283057 52.085958,3.94045814 C51.9276789,3.90565607 51.737027,3.91785939 51.5986278,4.06588118 C50.9561688,4.68904159 48.9954415,6.73592299 48.4101238,7.34778403 C48.3047493,7.4581789 48.2433713,7.43365926 48.2428281,7.27592002 C48.2380482,6.09626549 48.2156697,1.0456718 48.1751494,0.214941911 C48.1723249,0.105112007 48.0453323,0.0217226352 47.9737428,0.0177678547 C47.6056922,-0.00223203529 46.6758975,-0.00799471546 46.3094764,0.0143780428 C46.2068177,0.0264683718 46.1087216,0.135281333 46.0998136,0.227258228 C46.0152967,1.5556125 46.1356627,11.3067453 46.1858514,12.6708056 C46.1894363,12.7694491 46.2600482,12.8459459 46.3501054,12.8514826 C46.7156574,12.8735163 47.6198146,12.8720474 48.0419646,12.8637989 C48.249672,12.8637989 48.2750923,12.7119353 48.2750923,12.7119353 L48.3063788,10.0953395 C48.3063788,10.0953395 48.3277796,9.978956 48.3624337,9.94053813 C48.5112617,9.77387238 48.9229829,9.31489185 49.0985348,9.1374917 C49.1406846,9.09489306 49.2071683,9.09794389 49.2501872,9.15816955 C49.4587637,9.45082331 50.0535325,10.4022305 50.6048479,11.2519433 C51.1114062,12.032504 51.5842882,12.7252686 51.6173128,12.7741949 C51.6935735,12.8871886 51.7826531,12.8917083 51.8497886,12.8895615 L51.8497886,12.8892225 L51.84968,12.8892225 Z M27.1645475,12.880183 C27.292192,12.8845897 28.2606603,12.8834598 28.6897629,12.8828948 C28.8342455,12.8858327 28.9093113,12.772048 28.9140912,12.6715966 C29.0052348,10.7590647 28.9662353,1.65335208 28.9086595,0.21550688 C28.9038797,0.0912137784 28.8527132,0.0445473684 28.7711294,0.0332479955 C28.4028616,-0.0180511573 27.3562858,-0.00607382207 27.0208253,0.0852251107 C26.9552106,0.102965126 26.9165371,0.154829248 26.9144731,0.221495548 C26.8323461,3.92768985 26.8877492,12.4722756 26.9051306,12.6340826 C26.9224033,12.7961156 27.0038785,12.8745333 27.1647648,12.880183 L27.1645475,12.880183 Z" id="Shape" fill="#443642"></path>
                <path d="M1.35420729,7.99996006 C0.76057183,8.00416098 0.257699711,7.67668909 0.0722831747,7.16557688 C0.0654046839,7.14627403 0.0589920287,7.1268316 0.053049991,7.10726408 C-0.14900649,6.45272039 0.24278859,5.76797006 0.945015902,5.54872193 L12.2083141,2.05565509 C12.3420506,2.01984084 12.4804511,2.00112998 12.6196665,2.00004288 C13.2290775,1.99564192 13.7457802,2.33031539 13.9357349,2.85222997 L13.952591,2.90264103 C14.1632916,3.5843907 13.6397816,4.19292429 13.0125421,4.38796711 C13.0121099,4.38826717 12.8980074,4.42397501 1.81169774,7.92784422 C1.66433993,7.97434475 1.50988598,7.99869187 1.35420729,7.99996006 Z" id="Shape" fill="#70CADB"></path>
                <path d="M3.35619646,13.9998016 C2.75954958,14.00377 2.25632746,13.6835181 2.0735727,13.1837941 C2.06663546,13.1647842 2.06016841,13.1456316 2.05417656,13.1263511 C1.84987053,12.4693783 2.24016401,11.7830391 2.94284312,11.5652717 L14.1757954,8.06879123 C14.3209432,8.02414645 14.4708322,8.001328 14.6215834,8.00003826 C15.2198466,7.99587141 15.745482,8.3323939 15.9309307,8.83777289 L15.9481717,8.89035452 C16.0566823,9.23967518 15.9925673,9.63225167 15.7768391,9.9420865 C15.6160667,10.1724536 15.1089653,10.3752401 15.1089653,10.3752401 L3.83334154,13.9248975 C3.67955918,13.9728296 3.51853992,13.9981739 3.35619646,14 L3.35619646,13.9998016 Z" id="Shape" fill="#E01765"></path>
                <path d="M12.741229,14.9999354 C12.1904614,15.0057134 11.6989002,14.6234764 11.5235481,14.0530694 L8.06674526,2.83569785 L8.04945627,2.77273989 C7.86215897,2.05740722 8.2223461,1.31124685 8.86790079,1.07352628 C8.99707135,1.02609072 9.13061383,1.00134173 9.26505057,1.00003915 C9.46476812,0.998410924 9.65802715,1.04758326 9.84005827,1.14581939 C10.1429082,1.30943463 10.373535,1.59822437 10.4808436,1.94820772 L13.9373483,13.1646023 L13.9473839,13.2006403 C14.1415371,13.9433272 13.7821449,14.6899217 13.1365902,14.9276423 C13.0090754,14.9741817 12.875666,14.9985761 12.741229,14.9999354 Z" id="Shape" fill="#E8A723"></path>
                <path d="M6.73809906,15.9999364 C6.18735714,16.0056716 5.69586988,15.6230743 5.52068018,15.052239 L2.06692439,3.8344544 C1.95884347,3.48492943 1.98238875,3.10275875 2.13236702,2.77223482 C2.28234528,2.44171089 2.54643548,2.18998701 2.86638927,2.07258396 C2.99401364,2.02594367 3.12753969,2.00147445 3.26210005,2.00006828 C3.81261704,1.99412673 4.30400833,2.37643617 4.47922103,2.9470058 L7.93307612,14.1652246 C8.04120882,14.5149185 8.01758621,14.897282 7.86742323,15.2279045 C7.71726024,15.5585271 7.45290538,15.8102204 7.13271754,15.9274207 C7.00534118,15.9740857 6.87203504,15.998521 6.73770186,15.9998278 L6.73809906,15.9998278 L6.73809906,15.9999364 Z" id="Shape" fill="#3EB890"></path>
                <polygon id="Shape" fill="#CC2027" points="10.9880805 11 14 10.2186283 13.0153961 8 10 8.77317548 10.9880805 11"></polygon>
                <polygon id="Shape" fill="#361238" points="4.99336845 13 8 12.2230897 7.00960645 10 4 10.7691347 4.99336845 13"></polygon>
                <polygon id="Shape" fill="#65863A" points="8.98089727 6 12 5.21259269 11.0247029 3 8 3.77409849"></polygon>
                <polygon id="Shape" fill="#1A937D" points="3.98988771 8 7 7.21993408 6.01569576 5 3 5.766787 3.98988771 8"></polygon>
            </g>
        </g>
    </g>
</svg>